# xmcd
#
# Track frame offsets:
#	150
#	23210
#	37512
#	55345
#	70785
#	88125
#	113737
#	144462
#	156032
#	175740
#	195112
#
# Disc length: 2986 seconds
#
# Revision: 1
# Processed by: cddbd v1.5.2PL0 Copyright (c) Steve Scherf et al.
# Submitted via: audiograbber 1.83.01
#
DISCID=800ba80b
DTITLE=Blues Express - Angels In The Alley
DYEAR=2001
DGENRE=Blues
TTITLE0=Shame, Shame
TTITLE1=My Baby Left Me...Everything
TTITLE2=There's Some Blues Goin' Down
TTITLE3=Tradin' Up
TTITLE4=That Girl Can Cook
TTITLE5=Angels In The Alley
TTITLE6=Ain't My Love Enough
TTITLE7=That's All She Wrote
TTITLE8=Saxophone Man
TTITLE9=Must Be Jelly
TTITLE10=Me And The Blues
EXTD=
EXTT0=
EXTT1=
EXTT2=
EXTT3=
EXTT4=
EXTT5=
EXTT6=
EXTT7=
EXTT8=
EXTT9=
EXTT10=
PLAYORDER=
